<svg xmlns="http://www.w3.org/2000/svg" xmlns:xlink="http://www.w3.org/1999/xlink"><symbol id="icon-close" viewBox="0 0 24 24"><g fill="none">
<path fill-rule="evenodd" clip-rule="evenodd" d="M18.7071 5.29289C19.0976 5.68342 19.0976 6.31658 18.7071 6.70711L6.70711 18.7071C6.31658 19.0976 5.68342 19.0976 5.29289 18.7071C4.90237 18.3166 4.90237 17.6834 5.29289 17.2929L17.2929 5.29289C17.6834 4.90237 18.3166 4.90237 18.7071 5.29289Z" fill="currentColor"/>
<path fill-rule="evenodd" clip-rule="evenodd" d="M5.29289 5.29289C5.68342 4.90237 6.31658 4.90237 6.70711 5.29289L18.7071 17.2929C19.0976 17.6834 19.0976 18.3166 18.7071 18.7071C18.3166 19.0976 17.6834 19.0976 17.2929 18.7071L5.29289 6.70711C4.90237 6.31658 4.90237 5.68342 5.29289 5.29289Z" fill="currentColor"/>
</g></symbol><symbol id="icon-menu-close" viewBox="0 0 20.514 20.512"><g enable-background="new 0 0 20.514 20.512">
  <polygon points="20.513,1.414 19.099,0 10.256,8.842 1.414,0 0,1.414 8.842,10.256 0,19.098 1.414,20.512 10.256,11.67 19.099,20.512 20.513,19.098 11.671,10.256 "/>
</g></symbol><symbol id="icon-menu-open" viewBox="0 0 19.958 14"><g enable-background="new 0 0 19.958 14">
  <rect width="19.958" height="2"/>
  <rect y="6" width="19.958" height="2"/>
  <rect y="12" width="19.958" height="2"/>
</g></symbol><symbol id="icon-phone" viewBox="0 0 14 15"><path d="M13.619 10.775 11.665 8.82c-.698-.698-1.884-.419-2.163.488-.21.628-.907.977-1.535.838-1.396-.35-3.28-2.163-3.628-3.629-.21-.628.209-1.326.837-1.535.907-.279 1.186-1.465.488-2.163L3.711.866c-.559-.488-1.396-.488-1.884 0L.5 2.192C-.825 3.588.64 7.286 3.92 10.565c3.28 3.28 6.978 4.815 8.373 3.42l1.326-1.326c.488-.559.488-1.396 0-1.884Z"/></symbol><symbol id="icon-right-arrow" viewBox="0 0 6 11"><path d="M5.587 5.226.96.613a.388.388 0 0 0-.547.549L4.764 5.5.414 9.838a.387.387 0 1 0 .547.549l4.626-4.613a.387.387 0 0 0 0-.548Z"/></symbol><symbol id="icon-send" viewBox="0 0 20 19"><path d="M19.586 8.85 1.015.28a.718.718 0 0 0-.855.2.71.71 0 0 0-.017.876L6.25 9.5.143 17.642a.712.712 0 0 0 .572 1.143.708.708 0 0 0 .298-.066l18.571-8.571a.713.713 0 0 0 .002-1.298Z"/></symbol></svg>